<svg width="19.333984" height="23.333984" viewBox="0 0 19.334 23.334" fill="none" xmlns="http://www.w3.org/2000/svg" xmlns:xlink="http://www.w3.org/1999/xlink">
	<desc>
			Created with Pixso.
	</desc>
	<defs/>
	<path id="Vector" d="M6.33 11.66C5.27 11.66 4.24 11.97 3.37 12.56C2.49 13.15 1.81 13.98 1.4 14.95C1 15.93 0.89 17 1.1 18.04C1.3 19.07 1.81 20.02 2.56 20.77C3.3 21.51 4.25 22.02 5.29 22.23C6.32 22.43 7.4 22.33 8.37 21.92C9.34 21.52 10.18 20.83 10.76 19.96C11.35 19.08 11.66 18.05 11.66 17L11.66 1C11.66 2.76 12.36 4.46 13.61 5.71C14.86 6.96 16.56 7.66 18.33 7.66" stroke="#D5C9BE" stroke-opacity="1.000000" stroke-width="2.000000" stroke-linejoin="round" stroke-linecap="round"/>
</svg>
