<svg width="256.000000" height="53.000000" viewBox="0 0 256 53" fill="none" xmlns="http://www.w3.org/2000/svg" xmlns:xlink="http://www.w3.org/1999/xlink">
	<desc>
			Created with Pixso.
	</desc>
	<defs>
		<clipPath id="clip65_1239">
			<rect id="WGResidences_BG_logo_dark" rx="0.000000" width="255.000000" height="52.000000" transform="translate(0.500000 0.500000)" fill="white" fill-opacity="0"/>
		</clipPath>
	</defs>
	<g clip-path="url(#clip65_1239)">
		<path id="Lorem" d="M34.72 44.19Q37.18 45.25 40.1 45.25Q43.07 45.25 45.57 44.16Q46.37 43.81 47.12 43.34Q48.08 42.75 48.91 42.02Q50.75 40.37 51.95 38Q53.68 34.55 53.68 30.13Q53.68 25.7 51.95 22.27Q50.74 19.87 48.88 18.21Q48.06 17.49 47.12 16.91Q46.37 16.45 45.57 16.1Q43.07 15.01 40.1 15.01Q37.18 15.01 34.72 16.06Q33.87 16.43 33.08 16.91Q32.14 17.49 31.33 18.21Q29.46 19.87 28.25 22.27Q26.53 25.7 26.53 30.13Q26.53 34.55 28.25 38Q29.45 40.37 31.3 42.02Q32.12 42.75 33.08 43.34Q33.87 43.83 34.72 44.19ZM1.01 43.77L1.01 44.53L22.97 44.53L22.97 35.75L22 35.75L19.05 43.67L8.28 43.67L8.28 17.03L11.59 16.52L11.59 15.73L1.01 15.73L1.01 16.52L4.32 17.03L4.32 43.24L1.01 43.77ZM76.03 43.92Q77.04 44.89 79.06 44.89Q80.1 44.89 81.03 44.57Q81.25 44.49 81.47 44.39Q82.58 43.88 83.63 42.69L83.02 42.04Q82.48 42.59 81.86 42.93Q81.25 43.27 80.71 43.27Q80.34 43.27 80.06 43.11Q79.74 42.93 79.54 42.55Q79.17 41.83 78.88 39.81L78.41 36.72Q78.05 34.53 76.82 33.06Q76.58 32.77 76.3 32.51Q76.28 32.49 76.27 32.47Q74.6 30.92 71.85 30.53L71.85 30.31Q76.44 29.71 78.22 27.16Q79.34 25.54 79.34 23.15Q79.34 20.61 78.14 18.95Q77.56 18.16 76.71 17.57Q74.09 15.73 68.22 15.73L58.14 15.73L58.14 16.52L61.46 17.03L61.46 43.24L58.14 43.77L58.14 44.53L68.72 44.53L68.72 43.77L65.41 43.24L65.41 30.56L68.22 30.56Q70.98 30.56 72.29 31.94Q72.3 31.95 72.3 31.95Q73.62 33.33 73.98 35.79L74.67 40.61Q75.03 42.95 76.03 43.92ZM85.39 43.77L85.39 44.53L107.86 44.53L107.86 35.75L106.92 35.75L103.97 43.67L92.66 43.67L92.66 30.45L97.31 30.45L99.47 35.75L100.41 35.75L100.41 24.37L99.47 24.37L97.35 29.59L92.66 29.59L92.66 16.63L103.32 16.63L106.09 23.97L107.07 23.97L107.07 15.73L85.39 15.73L85.39 16.52L88.71 17.03L88.71 43.24L85.39 43.77ZM116.68 17.03L127.41 44.89L128.06 44.89L138.71 18.11L138.71 43.24L135.4 43.77L135.4 44.53L145.98 44.53L145.98 43.77L142.67 43.24L142.67 17.03L145.98 16.52L145.98 15.73L138.71 15.73L129.49 38.84L120.46 15.73L112.5 15.73L112.5 16.52L115.81 17.03L115.81 42.33L112.43 43.77L112.43 44.53L120.13 44.53L120.13 43.77L116.68 42.33L116.68 17.03ZM43.18 43.87Q41.74 44.42 40.1 44.42Q38.31 44.42 36.79 43.79Q36.07 43.49 35.42 43.05Q35.36 43.01 35.3 42.97Q33.34 41.61 32.18 39.07Q31 36.46 31 32.9L31 27.36Q31 23.8 32.18 21.19Q33.34 18.65 35.3 17.28Q35.36 17.24 35.42 17.2Q36.07 16.77 36.79 16.47Q38.31 15.83 40.1 15.83Q41.74 15.83 43.18 16.38Q44 16.7 44.76 17.2Q44.89 17.29 45.01 17.38Q46.91 18.74 48.02 21.19Q49.22 23.8 49.22 27.36L49.22 32.9Q49.22 36.46 48.02 39.07Q46.91 41.52 45.01 42.88Q44.89 42.97 44.76 43.05Q44 43.56 43.18 43.87ZM72.84 28.71Q71.5 29.69 69.45 29.69L65.41 29.69L65.41 16.63L68.22 16.63Q72.03 16.63 73.69 18.52Q74.99 19.99 74.99 22.61L74.99 23.37Q74.99 26.5 73.53 28.09Q73.21 28.44 72.84 28.71Z" fill="#FFFFFF" fill-opacity="1.000000" fill-rule="evenodd"/>
	</g>
</svg>
